<svg width="220" height="220" viewBox="0 0 220 220" fill="none" xmlns="http://www.w3.org/2000/svg">
  <defs>
    <radialGradient id="reef-bg" cx="0" cy="0" r="1" gradientUnits="userSpaceOnUse" gradientTransform="translate(110 104) rotate(90) scale(86 82)">
      <stop stop-color="#FFF8F5"/>
      <stop offset="1" stop-color="#FFDDD4"/>
    </radialGradient>
    <linearGradient id="reef-shell" x1="110" y1="30" x2="110" y2="188" gradientUnits="userSpaceOnUse">
      <stop stop-color="#FF9D84"/>
      <stop offset="1" stop-color="#FF6F5D"/>
    </linearGradient>
    <linearGradient id="reef-spike" x1="110" y1="30" x2="110" y2="62" gradientUnits="userSpaceOnUse">
      <stop stop-color="#FFE7DA"/>
      <stop offset="1" stop-color="#FFBA9C"/>
    </linearGradient>
  </defs>
  <ellipse cx="110" cy="186" rx="54" ry="14" fill="#F3A589" fill-opacity=".26"/>
  <circle cx="110" cy="104" r="84" fill="url(#reef-bg)"/>

  <path d="M76 60L88 34L100 60" fill="url(#reef-spike)"/>
  <path d="M102 46L110 22L118 46" fill="url(#reef-spike)"/>
  <path d="M120 60L132 34L144 60" fill="url(#reef-spike)"/>

  <path d="M72 64C72 30 94 16 110 16C126 16 148 30 148 64V86C148 112 126 130 110 130C94 130 72 112 72 86V64Z" fill="url(#reef-shell)" stroke="#D86457" stroke-width="5"/>
  <path d="M82 55C90 44 101 38 110 38C119 38 130 44 138 55" stroke="#FFD8C7" stroke-width="5" stroke-linecap="round" opacity=".7"/>
  <ellipse cx="110" cy="82" rx="33" ry="22" fill="#FFEEE6"/>

  <rect x="74" y="112" width="72" height="48" rx="24" fill="#FF7964" stroke="#D86457" stroke-width="5"/>
  <ellipse cx="110" cy="135" rx="27" ry="16" fill="#FFF4EF"/>
  <path d="M92 116C97 123 123 123 128 116" stroke="#FFD3C3" stroke-width="4" stroke-linecap="round" opacity=".65"/>

  <rect x="42" y="116" width="30" height="10" rx="5" fill="#EC5D4C"/>
  <rect x="148" y="116" width="30" height="10" rx="5" fill="#EC5D4C"/>
  <path d="M14 102C34 90 52 98 64 116C50 134 26 136 8 118C8 108 10 104 14 102Z" fill="#E44E47"/>
  <path d="M206 102C186 90 168 98 156 116C170 134 194 136 212 118C212 108 210 104 206 102Z" fill="#E44E47"/>

  <rect x="84" y="160" width="6" height="29" rx="3" fill="#EB6652"/>
  <rect x="99" y="164" width="6" height="25" rx="3" fill="#EB6652"/>
  <rect x="115" y="164" width="6" height="25" rx="3" fill="#EB6652"/>
  <rect x="130" y="160" width="6" height="29" rx="3" fill="#EB6652"/>

  <ellipse cx="96" cy="82" rx="5.8" ry="7.8" fill="#312727"/>
  <ellipse cx="124" cy="82" rx="5.8" ry="7.8" fill="#312727"/>
  <circle cx="88" cy="91" r="4.5" fill="#FFB9B0" opacity=".9"/>
  <circle cx="132" cy="91" r="4.5" fill="#FFB9B0" opacity=".9"/>
  <path d="M101 96C105 102 115 102 119 96" stroke="#5F4542" stroke-width="3.6" stroke-linecap="round"/>
</svg>
