<svg width="124" height="142" viewBox="0 0 124 142">
  <defs>
    <radialGradient id="rg-body" cx="40%" cy="35%" r="60%">
      <stop offset="0%" stop-color="#FF9080"/>
      <stop offset="100%" stop-color="#C84038"/>
    </radialGradient>
    <radialGradient id="rg-belly" cx="50%" cy="35%" r="55%">
      <stop offset="0%" stop-color="#FFE8E0"/>
      <stop offset="100%" stop-color="#FFD8D0"/>
    </radialGradient>
  </defs>
  <ellipse cx="62" cy="84" rx="46" ry="42" fill="#FF6F5E" opacity=".1"/>
  <!-- ridge spines -->
  <path d="M50 46 L46 32" stroke="#C84038" stroke-width="2.5" fill="none" stroke-linecap="round"/>
  <path d="M62 43 L62 28" stroke="#C84038" stroke-width="2.5" fill="none" stroke-linecap="round"/>
  <path d="M74 46 L78 32" stroke="#C84038" stroke-width="2.5" fill="none" stroke-linecap="round"/>
  <circle cx="46" cy="31" r="3" fill="#FF6F5E"/>
  <circle cx="62" cy="27" r="3" fill="#FF6F5E"/>
  <circle cx="78" cy="31" r="3" fill="#FF6F5E"/>
  <!-- antennae thick -->
  <path d="M46 46 Q36 30 28 16" stroke="#C84038" stroke-width="2.5" fill="none" stroke-linecap="round"/>
  <path d="M78 46 Q88 30 96 16" stroke="#C84038" stroke-width="2.5" fill="none" stroke-linecap="round"/>
  <circle cx="27" cy="14" r="5" fill="#FF6F5E" stroke="#C84038" stroke-width="1.5"/>
  <circle cx="97" cy="14" r="5" fill="#FF6F5E" stroke="#C84038" stroke-width="1.5"/>
  <!-- legs sturdy -->
  <path d="M32 92 Q18 102 13 115" stroke="#B83030" stroke-width="3" fill="none" stroke-linecap="round"/>
  <path d="M35 102 Q22 114 19 126" stroke="#B83030" stroke-width="2.5" fill="none" stroke-linecap="round"/>
  <path d="M92 92 Q106 102 111 115" stroke="#B83030" stroke-width="3" fill="none" stroke-linecap="round"/>
  <path d="M89 102 Q102 114 105 126" stroke="#B83030" stroke-width="2.5" fill="none" stroke-linecap="round"/>
  <!-- HUGE claws -->
  <path d="M30 72 Q12 62 4 57" stroke="#B83030" stroke-width="7" fill="none" stroke-linecap="round"/>
  <ellipse cx="0" cy="55" rx="17" ry="13" fill="url(#rg-body)" stroke="#C84038" stroke-width="2"/>
  <path d="M-5 48 Q0 43 7 46" stroke="#9A2828" stroke-width="2.5" fill="none" stroke-linecap="round"/>
  <path d="M-6 62 Q0 67 7 64" stroke="#9A2828" stroke-width="2.5" fill="none" stroke-linecap="round"/>
  <!-- reef texture on claw -->
  <path d="M-8 52 Q0 50 6 53" stroke="#FF8070" stroke-width="1" fill="none" opacity=".6"/>
  <path d="M94 72 Q112 62 120 57" stroke="#B83030" stroke-width="7" fill="none" stroke-linecap="round"/>
  <ellipse cx="124" cy="55" rx="17" ry="13" fill="url(#rg-body)" stroke="#C84038" stroke-width="2"/>
  <path d="M129 48 Q124 43 117 46" stroke="#9A2828" stroke-width="2.5" fill="none" stroke-linecap="round"/>
  <path d="M130 62 Q124 67 117 64" stroke="#9A2828" stroke-width="2.5" fill="none" stroke-linecap="round"/>
  <path d="M132 52 Q124 50 118 53" stroke="#FF8070" stroke-width="1" fill="none" opacity=".6"/>
  <!-- body stocky -->
  <ellipse cx="62" cy="84" rx="32" ry="30" fill="url(#rg-body)"/>
  <ellipse cx="62" cy="93" rx="20" ry="18" fill="url(#rg-belly)"/>
  <!-- shell with texture -->
  <path d="M34 72 Q62 44 90 72" fill="#B83030" stroke="none"/>
  <path d="M38 67 Q62 46 86 67" fill="#A82828" stroke="none"/>
  <!-- shell highlight lines -->
  <path d="M44 56 Q62 50 80 56" stroke="#FF7060" stroke-width="1.5" fill="none" opacity=".6"/>
  <path d="M48 62 Q62 58 76 62" stroke="#FF7060" stroke-width="1" fill="none" opacity=".4"/>
  <!-- angry brows -->
  <path d="M37 62 L49 67" stroke="#9A2828" stroke-width="2.5" fill="none" stroke-linecap="round"/>
  <path d="M87 62 L75 67" stroke="#9A2828" stroke-width="2.5" fill="none" stroke-linecap="round"/>
  <!-- eyes determined -->
  <circle cx="48" cy="72" r="9.5" fill="white" stroke="#C84038" stroke-width="1.2"/>
  <circle cx="76" cy="72" r="9.5" fill="white" stroke="#C84038" stroke-width="1.2"/>
  <circle cx="49" cy="73" r="6" fill="#180808"/>
  <circle cx="77" cy="73" r="6" fill="#180808"/>
  <circle cx="51" cy="71" r="2.2" fill="white"/>
  <circle cx="79" cy="71" r="2.2" fill="white"/>
  <ellipse cx="40" cy="82" rx="6" ry="3.5" fill="#FF8878" opacity=".35"/>
  <ellipse cx="84" cy="82" rx="6" ry="3.5" fill="#FF8878" opacity=".35"/>
  <path d="M56 88 Q62 92 68 88" stroke="#A82828" stroke-width="2" fill="none" stroke-linecap="round"/>
</svg>
