<svg width="220" height="220" viewBox="0 0 220 220" fill="none" xmlns="http://www.w3.org/2000/svg">
  <defs>
    <radialGradient id="g1" cx="0" cy="0" r="1" gradientUnits="userSpaceOnUse" gradientTransform="translate(110 104) rotate(90) scale(84 80)">
      <stop stop-color="#FFF8F4"/>
      <stop offset="1" stop-color="#FFE2D8"/>
    </radialGradient>
    <linearGradient id="shell" x1="110" y1="44" x2="110" y2="176" gradientUnits="userSpaceOnUse">
      <stop stop-color="#FFAE94"/>
      <stop offset="1" stop-color="#FF866E"/>
    </linearGradient>
  </defs>
  <ellipse cx="110" cy="184" rx="50" ry="13" fill="#F6B29A" fill-opacity=".24"/>
  <circle cx="110" cy="104" r="82" fill="url(#g1)"/>
  <path d="M91 46L100 34L108 48" stroke="#FFC9B0" stroke-width="6" stroke-linecap="round"/>
  <path d="M129 46L120 34L112 48" stroke="#FFC9B0" stroke-width="6" stroke-linecap="round"/>
  <path d="M80 66C80 40 95 26 110 26C125 26 140 40 140 66V82C140 102 125 116 110 116C95 116 80 102 80 82V66Z" fill="url(#shell)" stroke="#E87561" stroke-width="4"/>
  <ellipse cx="110" cy="78" rx="28" ry="19" fill="#FFE8DE"/>
  <rect x="82" y="110" width="56" height="40" rx="20" fill="#FF8A71" stroke="#E87561" stroke-width="4"/>
  <ellipse cx="110" cy="129" rx="22" ry="13" fill="#FFF0E8"/>
  <rect x="57" y="114" width="24" height="8" rx="4" fill="#F97C63"/>
  <rect x="139" y="114" width="24" height="8" rx="4" fill="#F97C63"/>
  <path d="M39 104C52 98 62 102 68 113C58 122 46 122 36 114C36 108 37 106 39 104Z" fill="#F16754"/>
  <path d="M181 104C168 98 158 102 152 113C162 122 174 122 184 114C184 108 183 106 181 104Z" fill="#F16754"/>
  <rect x="90" y="148" width="5.5" height="25" rx="2.75" fill="#F57F62"/>
  <rect x="102" y="151" width="5.5" height="22" rx="2.75" fill="#F57F62"/>
  <rect x="113" y="151" width="5.5" height="22" rx="2.75" fill="#F57F62"/>
  <rect x="125" y="148" width="5.5" height="25" rx="2.75" fill="#F57F62"/>
  <ellipse cx="98" cy="79" rx="5.5" ry="7.5" fill="#312727"/>
  <ellipse cx="122" cy="79" rx="5.5" ry="7.5" fill="#312727"/>
  <path d="M101 91C105 96 115 96 119 91" stroke="#674946" stroke-width="3.2" stroke-linecap="round"/>
</svg>
