<svg width="132" height="152" viewBox="0 0 132 152">
  <defs>
    <radialGradient id="royg-body" cx="40%" cy="35%" r="60%">
      <stop offset="0%" stop-color="#FF9070"/>
      <stop offset="100%" stop-color="#C84838"/>
    </radialGradient>
    <radialGradient id="royg-belly" cx="50%" cy="30%" r="55%">
      <stop offset="0%" stop-color="#FFF8F0"/>
      <stop offset="100%" stop-color="#FFE8D8"/>
    </radialGradient>
    <radialGradient id="royg-crown" cx="50%" cy="50%" r="60%">
      <stop offset="0%" stop-color="#FFE090"/>
      <stop offset="100%" stop-color="#E8A040"/>
    </radialGradient>
  </defs>
  <!-- outer glow ring -->
  <ellipse cx="66" cy="94" rx="52" ry="48" fill="none" stroke="#FFC56E" stroke-width="1.5" opacity=".25"/>
  <ellipse cx="66" cy="94" rx="46" ry="42" fill="none" stroke="#F56A52" stroke-width="1" opacity=".15"/>
  <!-- CROWN -->
  <path d="M38 46 L46 26 L56 36 L66 22 L76 36 L86 26 L94 46 Z" fill="url(#royg-crown)" stroke="#C8901C" stroke-width="1.2"/>
  <circle cx="46" cy="25" r="4" fill="white" stroke="#E8A040" stroke-width="1"/>
  <circle cx="66" cy="21" r="5" fill="white" stroke="#E8A040" stroke-width="1"/>
  <circle cx="86" cy="25" r="4" fill="white" stroke="#E8A040" stroke-width="1"/>
  <!-- crown gems -->
  <circle cx="46" cy="25" r="2.5" fill="#FFE090"/>
  <circle cx="66" cy="21" r="3" fill="#FFE090"/>
  <circle cx="86" cy="25" r="2.5" fill="#FFE090"/>
  <rect x="38" y="44" width="56" height="7" rx="3" fill="#FFC56E" stroke="#C8901C" stroke-width="1"/>
  <!-- antennae with gold tips -->
  <path d="M48 52 Q36 34 28 18" stroke="#C84838" stroke-width="2.2" fill="none" stroke-linecap="round"/>
  <path d="M84 52 Q96 34 104 18" stroke="#C84838" stroke-width="2.2" fill="none" stroke-linecap="round"/>
  <circle cx="27" cy="16" r="5.5" fill="#FFC56E" stroke="#E8A040" stroke-width="1.5"/>
  <circle cx="105" cy="16" r="5.5" fill="#FFC56E" stroke="#E8A040" stroke-width="1.5"/>
  <!-- legs -->
  <path d="M34 100 Q18 112 13 125" stroke="#B84030" stroke-width="2.8" fill="none" stroke-linecap="round"/>
  <path d="M36 110 Q22 124 19 137" stroke="#B84030" stroke-width="2.5" fill="none" stroke-linecap="round"/>
  <path d="M98 100 Q114 112 119 125" stroke="#B84030" stroke-width="2.8" fill="none" stroke-linecap="round"/>
  <path d="M96 110 Q110 124 113 137" stroke="#B84030" stroke-width="2.5" fill="none" stroke-linecap="round"/>
  <!-- NOBLE CLAWS gold trim -->
  <path d="M30 80 Q12 70 3 64" stroke="#B84030" stroke-width="7" fill="none" stroke-linecap="round"/>
  <ellipse cx="-1" cy="62" rx="18" ry="13" fill="url(#royg-body)" stroke="#FFC56E" stroke-width="2.5"/>
  <path d="M-7 55 Q-1 49 7 53" stroke="#9A2828" stroke-width="2.5" fill="none" stroke-linecap="round"/>
  <path d="M-8 69 Q-1 75 7 71" stroke="#9A2828" stroke-width="2.5" fill="none" stroke-linecap="round"/>
  <!-- gold claw highlight -->
  <path d="M-10 58 Q-1 55 6 58" stroke="#FFC56E" stroke-width="1.2" fill="none" opacity=".8"/>
  <path d="M102 80 Q120 70 129 64" stroke="#B84030" stroke-width="7" fill="none" stroke-linecap="round"/>
  <ellipse cx="133" cy="62" rx="18" ry="13" fill="url(#royg-body)" stroke="#FFC56E" stroke-width="2.5"/>
  <path d="M139 55 Q133 49 125 53" stroke="#9A2828" stroke-width="2.5" fill="none" stroke-linecap="round"/>
  <path d="M140 69 Q133 75 125 71" stroke="#9A2828" stroke-width="2.5" fill="none" stroke-linecap="round"/>
  <path d="M142 58 Q133 55 126 58" stroke="#FFC56E" stroke-width="1.2" fill="none" opacity=".8"/>
  <!-- body -->
  <ellipse cx="66" cy="94" rx="34" ry="32" fill="url(#royg-body)"/>
  <!-- gold body ring -->
  <ellipse cx="66" cy="94" rx="34" ry="32" fill="none" stroke="#FFC56E" stroke-width="2" opacity=".4"/>
  <ellipse cx="66" cy="103" rx="21" ry="19" fill="url(#royg-belly)"/>
  <!-- shell -->
  <path d="M36 80 Q66 52 96 80" fill="#B84030" stroke="none"/>
  <path d="M40 75 Q66 54 92 75" fill="#A83828" stroke="none"/>
  <path d="M46 64 Q66 58 86 64" stroke="#FF8060" stroke-width="1.8" fill="none" opacity=".7"/>
  <path d="M50 72 Q66 68 82 72" stroke="#FF8060" stroke-width="1.2" fill="none" opacity=".4"/>
  <!-- eyes regal + gold iris -->
  <circle cx="54" cy="82" r="10" fill="white" stroke="#C84838" stroke-width="1.2"/>
  <circle cx="78" cy="82" r="10" fill="white" stroke="#C84838" stroke-width="1.2"/>
  <circle cx="55" cy="83" r="6.5" fill="#180808"/>
  <circle cx="79" cy="83" r="6.5" fill="#180808"/>
  <circle cx="55" cy="83" r="6.5" fill="none" stroke="#FFC56E" stroke-width="1.2" opacity=".9"/>
  <circle cx="79" cy="83" r="6.5" fill="none" stroke="#FFC56E" stroke-width="1.2" opacity=".9"/>
  <circle cx="57" cy="81" r="2.5" fill="white"/>
  <circle cx="81" cy="81" r="2.5" fill="white"/>
  <path d="M60 97 Q66 102 72 97" stroke="#A83828" stroke-width="2" fill="none" stroke-linecap="round"/>
</svg>
