<svg width="108" height="130" viewBox="0 0 108 130">
  <defs>
    <radialGradient id="sg-body" cx="45%" cy="40%" r="55%">
      <stop offset="0%" stop-color="#FFB08A"/>
      <stop offset="100%" stop-color="#E06040"/>
    </radialGradient>
    <radialGradient id="sg-belly" cx="50%" cy="40%" r="60%">
      <stop offset="0%" stop-color="#FFE8D8"/>
      <stop offset="100%" stop-color="#FFD0B8"/>
    </radialGradient>
  </defs>
  <!-- soft glow bg -->
  <ellipse cx="54" cy="76" rx="36" ry="34" fill="#F28C66" opacity=".12"/>
  <!-- antennae -->
  <path d="M42 42 Q36 28 32 18" stroke="#E06848" stroke-width="2" fill="none" stroke-linecap="round"/>
  <path d="M66 42 Q72 28 76 18" stroke="#E06848" stroke-width="2" fill="none" stroke-linecap="round"/>
  <circle cx="31" cy="17" r="4" fill="#F28C66" stroke="#FFB08A" stroke-width="1.5"/>
  <circle cx="77" cy="17" r="4" fill="#F28C66" stroke="#FFB08A" stroke-width="1.5"/>
  <!-- legs -->
  <path d="M34 80 Q24 86 20 95" stroke="#D86040" stroke-width="2.2" fill="none" stroke-linecap="round"/>
  <path d="M36 88 Q26 96 23 105" stroke="#D86040" stroke-width="2" fill="none" stroke-linecap="round"/>
  <path d="M74 80 Q84 86 88 95" stroke="#D86040" stroke-width="2.2" fill="none" stroke-linecap="round"/>
  <path d="M72 88 Q82 96 85 105" stroke="#D86040" stroke-width="2" fill="none" stroke-linecap="round"/>
  <!-- mini claws -->
  <path d="M34 62 Q22 56 16 54" stroke="#E07050" stroke-width="4" fill="none" stroke-linecap="round"/>
  <ellipse cx="13" cy="53" rx="9" ry="7" fill="url(#sg-body)" stroke="#C85030" stroke-width="1.2"/>
  <path d="M10 50 Q13 47 17 49" stroke="#C85030" stroke-width="1.8" fill="none" stroke-linecap="round"/>
  <path d="M9 56 Q13 59 17 57" stroke="#C85030" stroke-width="1.8" fill="none" stroke-linecap="round"/>
  <path d="M74 62 Q86 56 92 54" stroke="#E07050" stroke-width="4" fill="none" stroke-linecap="round"/>
  <ellipse cx="95" cy="53" rx="9" ry="7" fill="url(#sg-body)" stroke="#C85030" stroke-width="1.2"/>
  <path d="M98 50 Q95 47 91 49" stroke="#C85030" stroke-width="1.8" fill="none" stroke-linecap="round"/>
  <path d="M99 56 Q95 59 91 57" stroke="#C85030" stroke-width="1.8" fill="none" stroke-linecap="round"/>
  <!-- body -->
  <ellipse cx="54" cy="76" rx="30" ry="28" fill="url(#sg-body)"/>
  <ellipse cx="54" cy="83" rx="19" ry="17" fill="url(#sg-belly)"/>
  <!-- shell -->
  <path d="M28 66 Q54 42 80 66" fill="#D86040" stroke="none"/>
  <path d="M32 62 Q54 44 76 62" fill="#C85030" stroke="none"/>
  <!-- shell highlight -->
  <path d="M40 54 Q54 47 68 54" stroke="#F0906A" stroke-width="1.5" fill="none" opacity=".7" stroke-linecap="round"/>
  <!-- eyes -->
  <circle cx="44" cy="66" r="9" fill="white" stroke="#E07050" stroke-width="1"/>
  <circle cx="64" cy="66" r="9" fill="white" stroke="#E07050" stroke-width="1"/>
  <circle cx="45" cy="67" r="5.5" fill="#2A1008"/>
  <circle cx="65" cy="67" r="5.5" fill="#2A1008"/>
  <circle cx="46.5" cy="65" r="2" fill="white"/>
  <circle cx="66.5" cy="65" r="2" fill="white"/>
  <!-- blush -->
  <ellipse cx="37" cy="75" rx="6" ry="4" fill="#F0A080" opacity=".5"/>
  <ellipse cx="71" cy="75" rx="6" ry="4" fill="#F0A080" opacity=".5"/>
  <!-- mouth -->
  <path d="M48 79 Q54 84 60 79" stroke="#C85030" stroke-width="2" fill="none" stroke-linecap="round"/>
</svg>
