<svg width="220" height="220" viewBox="0 0 220 220" fill="none" xmlns="http://www.w3.org/2000/svg">
  <defs>
    <radialGradient id="mechaForgeBg" cx="0" cy="0" r="1" gradientUnits="userSpaceOnUse" gradientTransform="translate(110 104) rotate(90) scale(82 78)">
      <stop stop-color="#F7FCFF"/>
      <stop offset="1" stop-color="#E0EEF8"/>
    </radialGradient>
    <linearGradient id="mechaForgeBody" x1="110" y1="40" x2="110" y2="170" gradientUnits="userSpaceOnUse">
      <stop stop-color="#7FA8C9"/>
      <stop offset="1" stop-color="#496C89"/>
    </linearGradient>
  </defs>
  <ellipse cx="110" cy="184" rx="48" ry="12" fill="#B7CBD8" fill-opacity=".26"/>
  <circle cx="110" cy="104" r="80" fill="url(#mechaForgeBg)"/>
  <path d="M78 38H142L148 52V96C148 114 132 128 110 128C88 128 72 114 72 96V52L78 38Z" fill="url(#mechaForgeBody)" stroke="#3F5F7B" stroke-width="4"/>
  <rect x="85" y="103" width="50" height="50" rx="16" fill="#6C94B2" stroke="#3F5F7B" stroke-width="4"/>
  <rect x="95" y="120" width="30" height="14" rx="7" fill="#F0FAFF"/>
  <path d="M40 100L75 110L60 126L34 114L40 100Z" fill="#456D91"/>
  <path d="M180 100L145 110L160 126L186 114L180 100Z" fill="#456D91"/>
  <rect x="52" y="110" width="28" height="8" rx="4" fill="#5F88A9"/>
  <rect x="140" y="110" width="28" height="8" rx="4" fill="#5F88A9"/>
  <rect x="88" y="152" width="7" height="21" rx="3.5" fill="#567FA1"/>
  <rect x="101" y="152" width="7" height="21" rx="3.5" fill="#567FA1"/>
  <rect x="114" y="152" width="7" height="21" rx="3.5" fill="#567FA1"/>
  <rect x="127" y="152" width="7" height="21" rx="3.5" fill="#567FA1"/>
  <circle cx="96" cy="68" r="6.5" fill="#19242F"/>
  <circle cx="124" cy="68" r="6.5" fill="#19242F"/>
  <rect x="98" y="81" width="24" height="4" rx="2" fill="#304654"/>
  <path d="M89 38L96 25H124L131 38" stroke="#9EE8FF" stroke-width="4" stroke-linejoin="round"/>
  <circle cx="110" cy="52" r="7" fill="#98EDFF"/>
</svg>
