<svg width="220" height="220" viewBox="0 0 220 220" fill="none" xmlns="http://www.w3.org/2000/svg">
  <defs>
    <radialGradient id="mechaServoBg" cx="0" cy="0" r="1" gradientUnits="userSpaceOnUse" gradientTransform="translate(110 104) rotate(90) scale(82 78)">
      <stop stop-color="#F8FCFF"/>
      <stop offset="1" stop-color="#E4F0FB"/>
    </radialGradient>
    <linearGradient id="mechaServoBody" x1="110" y1="44" x2="110" y2="168" gradientUnits="userSpaceOnUse">
      <stop stop-color="#89AFC9"/>
      <stop offset="1" stop-color="#5D84A4"/>
    </linearGradient>
  </defs>
  <ellipse cx="110" cy="184" rx="46" ry="12" fill="#B8D0DF" fill-opacity=".26"/>
  <circle cx="110" cy="104" r="80" fill="url(#mechaServoBg)"/>
  <rect x="76" y="38" width="68" height="62" rx="20" fill="url(#mechaServoBody)" stroke="#4F6C85" stroke-width="4"/>
  <rect x="86" y="101" width="48" height="48" rx="16" fill="#7AA0BA" stroke="#4F6C85" stroke-width="4"/>
  <rect x="96" y="118" width="28" height="14" rx="7" fill="#E8F6FF"/>
  <path d="M43 101L75 108L61 124L36 114L43 101Z" fill="#4E7595"/>
  <path d="M177 101L145 108L159 124L184 114L177 101Z" fill="#4E7595"/>
  <rect x="54" y="110" width="26" height="8" rx="4" fill="#6E93B0"/>
  <rect x="140" y="110" width="26" height="8" rx="4" fill="#6E93B0"/>
  <rect x="91" y="148" width="6" height="22" rx="3" fill="#668AA7"/>
  <rect x="102" y="148" width="6" height="22" rx="3" fill="#668AA7"/>
  <rect x="113" y="148" width="6" height="22" rx="3" fill="#668AA7"/>
  <rect x="124" y="148" width="6" height="22" rx="3" fill="#668AA7"/>
  <circle cx="96" cy="68" r="6.2" fill="#1F2B39"/>
  <circle cx="124" cy="68" r="6.2" fill="#1F2B39"/>
  <rect x="100" y="80" width="20" height="4" rx="2" fill="#415764"/>
  <path d="M102 38L106 24H114L118 38" stroke="#A0E7FF" stroke-width="4" stroke-linecap="round" stroke-linejoin="round"/>
</svg>
