<svg width="220" height="220" viewBox="0 0 220 220" fill="none" xmlns="http://www.w3.org/2000/svg">
  <defs>
    <radialGradient id="spriteSeedBg" cx="0" cy="0" r="1" gradientUnits="userSpaceOnUse" gradientTransform="translate(110 104) rotate(90) scale(82 78)">
      <stop stop-color="#FFFDFE"/>
      <stop offset="1" stop-color="#F4EFFF"/>
    </radialGradient>
    <linearGradient id="spriteSeedBody" x1="110" y1="56" x2="110" y2="156" gradientUnits="userSpaceOnUse">
      <stop stop-color="#C9BCFF"/>
      <stop offset="1" stop-color="#8FB7FF"/>
    </linearGradient>
  </defs>
  <ellipse cx="110" cy="183" rx="40" ry="11" fill="#D7CBFF" fill-opacity=".26"/>
  <circle cx="110" cy="104" r="80" fill="url(#spriteSeedBg)"/>
  <path d="M71 108C81 90 92 82 106 80C97 96 91 113 92 131C81 128 74 121 71 108Z" fill="#D7CBFF" fill-opacity=".8"/>
  <path d="M149 108C139 90 128 82 114 80C123 96 129 113 128 131C139 128 146 121 149 108Z" fill="#D7CBFF" fill-opacity=".8"/>
  <path d="M84 70C84 48 97 36 110 36C123 36 136 48 136 70V90C136 108 123 121 110 121C97 121 84 108 84 90V70Z" fill="url(#spriteSeedBody)" stroke="#8A7BE8" stroke-width="4"/>
  <ellipse cx="110" cy="80" rx="24" ry="16" fill="#F8F3FF"/>
  <rect x="92" y="118" width="36" height="31" rx="15.5" fill="#AFC7FF" stroke="#8A7BE8" stroke-width="4"/>
  <ellipse cx="110" cy="132" rx="14" ry="10" fill="#FFF8FE"/>
  <circle cx="98" cy="80" r="5.5" fill="#2E2B3B"/>
  <circle cx="122" cy="80" r="5.5" fill="#2E2B3B"/>
  <circle cx="92" cy="89" r="4" fill="#FFD3E4" opacity=".9"/>
  <circle cx="128" cy="89" r="4" fill="#FFD3E4" opacity=".9"/>
  <path d="M102 92C105 96 115 96 118 92" stroke="#685E8F" stroke-width="3" stroke-linecap="round"/>
  <path d="M104 36L110 27L116 36" stroke="#A58FFF" stroke-width="4" stroke-linecap="round" stroke-linejoin="round"/>
</svg>
