<svg xmlns="http://www.w3.org/2000/svg" viewBox="0 0 512 512" width="512" height="512">
  <!-- sprite-oracle: 秘语星灵 | oracle stage | triple halo, long comet tail, wise half-lidded eyes, chest gem -->
  <!-- animation anchors: #body (float), #eyes (blink), #halo (rotate), #orbit-rings (rotate), #tail (sway), #core-gem (pulse) -->
  <g id="orbit-rings">
    <circle cx="256" cy="290" r="240" fill="none" stroke="#7C68F2" stroke-width="4" opacity=".15"/>
    <circle cx="256" cy="290" r="210" fill="none" stroke="#B9A9FF" stroke-width="5" opacity=".2"/>
    <circle cx="256" cy="290" r="180" fill="none" stroke="#7C68F2" stroke-width="6" opacity=".25"/>
    <circle cx="256" cy="50" r="14" fill="#FFF2B8" stroke="#C8A020" stroke-width="4"/>
    <circle cx="494" cy="276" r="12" fill="#B9A9FF" opacity=".8"/>
    <circle cx="18" cy="276" r="12" fill="#B9A9FF" opacity=".8"/>
    <circle cx="430" cy="112" r="10" fill="#FFF2B8" opacity=".7"/>
    <circle cx="82" cy="112" r="10" fill="#FFF2B8" opacity=".7"/>
    <circle cx="430" cy="468" r="10" fill="#7C68F2" opacity=".6"/>
    <circle cx="82" cy="468" r="10" fill="#7C68F2" opacity=".6"/>
  </g>
  <g id="halo">
    <ellipse cx="256" cy="122" rx="108" ry="30" fill="none" stroke="#FFF2B8" stroke-width="10"/>
    <ellipse cx="256" cy="122" rx="108" ry="30" fill="none" stroke="#B9A9FF" stroke-width="4" opacity=".6"/>
    <circle cx="148" cy="122" r="10" fill="#FFF2B8"/>
    <circle cx="364" cy="122" r="10" fill="#FFF2B8"/>
    <circle cx="256" cy="92" r="8" fill="#FFF2B8" opacity=".8"/>
    <circle cx="256" cy="152" r="8" fill="#FFF2B8" opacity=".8"/>
  </g>
  <g id="tail">
    <path d="M256 468 Q210 506 216 542 Q256 524 296 542 Q302 506 256 468Z" fill="#7C68F2" stroke="#5040C0" stroke-width="7"/>
    <path d="M240 480 Q216 514 222 534" stroke="#D9D0FF" stroke-width="5" fill="none" opacity=".7"/>
    <path d="M256 488 L256 532" stroke="#FFF2B8" stroke-width="4" fill="none" opacity=".6"/>
    <circle cx="230" cy="490" r="6" fill="#FFF2B8" opacity=".7"/>
    <circle cx="282" cy="500" r="5" fill="#FFF2B8" opacity=".6"/>
    <circle cx="236" cy="514" r="4" fill="#B9A9FF" opacity=".6"/>
  </g>
  <g id="sparkles">
    <path d="M76 218 L84 242 L76 266 L68 242Z" fill="#FFF2B8" opacity=".7"/>
    <path d="M436 214 L444 238 L436 262 L428 238Z" fill="#FFF2B8" opacity=".65"/>
    <path d="M100 394 L108 418 L100 442 L92 418Z" fill="#B9A9FF" opacity=".6"/>
    <path d="M412 394 L420 418 L412 442 L404 418Z" fill="#B9A9FF" opacity=".55"/>
  </g>
  <g id="body">
    <circle cx="256" cy="290" r="172" fill="#7C68F2" stroke="#5040C0" stroke-width="10"/>
    <circle cx="256" cy="264" r="118" fill="#D9D0FF" opacity=".38"/>
    <ellipse cx="202" cy="230" rx="62" ry="42" fill="white" opacity=".18"/>
    <circle cx="220" cy="358" r="8" fill="#B9A9FF" opacity=".5"/>
    <circle cx="292" cy="350" r="8" fill="#B9A9FF" opacity=".5"/>
    <circle cx="256" cy="374" r="7" fill="#B9A9FF" opacity=".4"/>
  </g>
  <g id="core-gem">
    <polygon points="256,248 276,276 256,304 236,276" fill="#FFF2B8" stroke="#C8A020" stroke-width="5"/>
    <polygon points="256,248 276,276 256,304 236,276" fill="none" stroke="#FFF2B8" stroke-width="3" opacity=".8"/>
    <circle cx="256" cy="276" r="8" fill="white" opacity=".7"/>
  </g>
  <g id="arms">
    <path d="M86 294 Q44 258 22 204 Q50 252 82 278" fill="#7C68F2" stroke="#5040C0" stroke-width="7"/>
    <path d="M426 294 Q468 258 490 204 Q462 252 430 278" fill="#7C68F2" stroke="#5040C0" stroke-width="7"/>
  </g>
  <g id="eyes">
    <circle cx="196" cy="288" r="56" fill="white" stroke="#5040C0" stroke-width="8"/>
    <circle cx="316" cy="288" r="56" fill="white" stroke="#5040C0" stroke-width="8"/>
    <!-- heavy upper lids for wise look -->
    <path d="M140 268 Q196 248 252 268" fill="#7C68F2" stroke="none"/>
    <path d="M260 268 Q316 248 372 268" fill="#7C68F2" stroke="none"/>
    <circle cx="200" cy="294" r="36" fill="#18104A"/>
    <circle cx="320" cy="294" r="36" fill="#18104A"/>
    <circle cx="200" cy="294" r="36" fill="none" stroke="#7C68F2" stroke-width="6" opacity=".9"/>
    <circle cx="320" cy="294" r="36" fill="none" stroke="#7C68F2" stroke-width="6" opacity=".9"/>
    <circle cx="200" cy="294" r="24" fill="none" stroke="#B9A9FF" stroke-width="4" opacity=".8"/>
    <circle cx="320" cy="294" r="24" fill="none" stroke="#B9A9FF" stroke-width="4" opacity=".8"/>
    <circle cx="200" cy="294" r="12" fill="none" stroke="#FFF2B8" stroke-width="3" opacity=".9"/>
    <circle cx="320" cy="294" r="12" fill="none" stroke="#FFF2B8" stroke-width="3" opacity=".9"/>
    <circle cx="214" cy="278" r="13" fill="white"/>
    <circle cx="334" cy="278" r="13" fill="white"/>
  </g>
  <g id="mouth">
    <path d="M228 360 Q256 384 284 360" stroke="#5040C0" stroke-width="8" fill="none" stroke-linecap="round"/>
  </g>
</svg>
