<svg width="220" height="220" viewBox="0 0 220 220" fill="none" xmlns="http://www.w3.org/2000/svg">
  <defs>
    <radialGradient id="spriteStarBg" cx="0" cy="0" r="1" gradientUnits="userSpaceOnUse" gradientTransform="translate(110 104) rotate(90) scale(82 78)">
      <stop stop-color="#FFFDFE"/>
      <stop offset="1" stop-color="#F1E9FF"/>
    </radialGradient>
    <linearGradient id="spriteStarBody" x1="110" y1="44" x2="110" y2="160" gradientUnits="userSpaceOnUse">
      <stop stop-color="#AB98FF"/>
      <stop offset="1" stop-color="#6ED1FF"/>
    </linearGradient>
  </defs>
  <ellipse cx="110" cy="184" rx="46" ry="12" fill="#D4C7FF" fill-opacity=".28"/>
  <circle cx="110" cy="104" r="80" fill="url(#spriteStarBg)"/>
  <path d="M57 110C76 78 93 68 108 68C99 90 97 118 101 145C81 141 66 130 57 110Z" fill="#CFC3FF" fill-opacity=".85"/>
  <path d="M163 110C144 78 127 68 112 68C121 90 123 118 119 145C139 141 154 130 163 110Z" fill="#CFC3FF" fill-opacity=".85"/>
  <path d="M79 62C79 38 94 26 110 26C126 26 141 38 141 62V88C141 111 126 127 110 127C94 127 79 111 79 88V62Z" fill="url(#spriteStarBody)" stroke="#6E6DDC" stroke-width="4"/>
  <ellipse cx="110" cy="75" rx="28" ry="18" fill="#FDF9FF"/>
  <rect x="88" y="123" width="44" height="36" rx="18" fill="#98D8FF" stroke="#6E6DDC" stroke-width="4"/>
  <ellipse cx="110" cy="138" rx="18" ry="11" fill="#FFFAFF"/>
  <circle cx="98" cy="77" r="6.2" fill="#2D2B3C"/>
  <circle cx="122" cy="77" r="6.2" fill="#2D2B3C"/>
  <path d="M101 91C104 96 116 96 119 91" stroke="#625A90" stroke-width="3" stroke-linecap="round"/>
  <path d="M110 18L114 28L125 29L116 36L119 47L110 41L101 47L104 36L95 29L106 28L110 18Z" fill="#FFD369" stroke="#E7A64A" stroke-width="3" stroke-linejoin="round"/>
</svg>
