<svg xmlns="http://www.w3.org/2000/svg" viewBox="0 0 512 512" width="512" height="512">
  <!-- sprite-mist: 雾光灵 | mist stage | flowing skirt body, calm eyes, mist wisps -->
  <!-- animation anchors: #body (float), #eyes (blink), #skirt (sway), #wisps (drift), #sparkles (twinkle) -->
  <g id="aura">
    <circle cx="256" cy="260" r="220" fill="#EEE8FF" opacity=".15"/>
  </g>
  <g id="sparkles">
    <circle cx="100" cy="180" r="10" fill="#A993FF" opacity=".7"/>
    <circle cx="412" cy="150" r="8" fill="#D6CCFF" opacity=".65"/>
    <circle cx="60" cy="320" r="8" fill="#A993FF" opacity=".5"/>
    <circle cx="452" cy="340" r="7" fill="#D6CCFF" opacity=".55"/>
    <path d="M60 240 L68 260 L60 280 L52 260Z" fill="#A993FF" opacity=".55"/>
    <path d="M452 230 L460 250 L452 270 L444 250Z" fill="#D6CCFF" opacity=".5"/>
  </g>
  <g id="skirt">
    <path d="M130 370 Q88 450 106 510 Q164 480 190 510 Q224 482 256 506 Q288 482 322 510 Q348 480 406 510 Q424 450 382 370Z" fill="#A993FF" stroke="#7A68D8" stroke-width="6" opacity=".88"/>
    <path d="M152 382 Q132 444 138 482" stroke="#D6CCFF" stroke-width="5" fill="none" opacity=".6"/>
    <path d="M256 386 Q250 450 254 480" stroke="#D6CCFF" stroke-width="5" fill="none" opacity=".6"/>
    <path d="M360 382 Q380 444 374 482" stroke="#D6CCFF" stroke-width="5" fill="none" opacity=".6"/>
    <path d="M124 430 Q190 450 256 446 Q322 450 388 430" stroke="#D6CCFF" stroke-width="4" fill="none" opacity=".4"/>
  </g>
  <g id="body">
    <circle cx="256" cy="258" r="160" fill="#A993FF" stroke="#7A68D8" stroke-width="8"/>
    <circle cx="256" cy="232" r="108" fill="#EEE8FF" opacity=".48"/>
    <ellipse cx="206" cy="206" rx="52" ry="36" fill="white" opacity=".22"/>
  </g>
  <g id="arms">
    <path d="M100 268 Q60 238 40 196 Q64 224 100 248" fill="#A993FF" stroke="#7A68D8" stroke-width="6"/>
    <path d="M412 268 Q452 238 472 196 Q448 224 412 248" fill="#A993FF" stroke="#7A68D8" stroke-width="6"/>
  </g>
  <g id="eyes">
    <circle cx="204" cy="258" r="52" fill="white" stroke="#7A68D8" stroke-width="6"/>
    <circle cx="308" cy="258" r="52" fill="white" stroke="#7A68D8" stroke-width="6"/>
    <circle cx="208" cy="262" r="32" fill="#3A2878"/>
    <circle cx="312" cy="262" r="32" fill="#3A2878"/>
    <circle cx="208" cy="262" r="32" fill="none" stroke="#A993FF" stroke-width="5" opacity=".8"/>
    <circle cx="312" cy="262" r="32" fill="none" stroke="#A993FF" stroke-width="5" opacity=".8"/>
    <circle cx="220" cy="248" r="12" fill="white"/>
    <circle cx="324" cy="248" r="12" fill="white"/>
  </g>
  <g id="blush">
    <ellipse cx="158" cy="304" rx="30" ry="18" fill="#C0A8FF" opacity=".4"/>
    <ellipse cx="354" cy="304" rx="30" ry="18" fill="#C0A8FF" opacity=".4"/>
  </g>
  <g id="mouth">
    <path d="M228 316 Q256 340 284 316" stroke="#7A68D8" stroke-width="7" fill="none" stroke-linecap="round"/>
  </g>
  <g id="wisps">
    <path d="M96 220 Q60 180 44 140 Q60 170 88 194" fill="#A993FF" stroke="#7A68D8" stroke-width="5" opacity=".7"/>
    <path d="M416 220 Q452 180 468 140 Q452 170 424 194" fill="#A993FF" stroke="#7A68D8" stroke-width="5" opacity=".7"/>
  </g>
</svg>
